<svg width="35" height="34" viewBox="0 0 35 34" fill="none" xmlns="http://www.w3.org/2000/svg">
<g clip-path="url(#clip0_211_2332)">
<mask id="path-1-inside-1_211_2332" fill="white">
<path d="M17.7868 20.7835C19.0979 19.6806 20.0381 18.2012 20.4799 16.5459C20.9218 14.8906 20.844 13.1395 20.257 11.5299C19.67 9.9203 18.6022 8.53016 17.1985 7.54791C15.7948 6.56566 14.1229 6.03882 12.4097 6.03882C10.6964 6.03882 9.02457 6.56566 7.62083 7.54791C6.21709 8.53016 5.14935 9.9203 4.56237 11.5299C3.97538 13.1395 3.89755 14.8906 4.33942 16.5459C4.78128 18.2012 5.72148 19.6806 7.03253 20.7835C4.90627 21.7457 3.07658 23.26 1.7337 25.1688C1.49537 25.5082 1.40136 25.9282 1.47232 26.3368C1.54327 26.7454 1.77339 27.1092 2.11219 27.3483C2.37485 27.5361 2.68987 27.6365 3.01273 27.6355C3.26385 27.6362 3.5114 27.576 3.73417 27.4601C3.95693 27.3442 4.14826 27.1759 4.29176 26.9699C5.20681 25.6666 6.4222 24.6027 7.83519 23.8683C9.24818 23.1339 10.8172 22.7505 12.4097 22.7505C14.0021 22.7505 15.5712 23.1339 16.9841 23.8683C18.3971 24.6027 19.6125 25.6666 20.5276 26.9699C20.641 27.1492 20.7897 27.3035 20.9646 27.4236C21.1396 27.5437 21.3371 27.627 21.5451 27.6684C21.7532 27.7099 21.9676 27.7086 22.1751 27.6647C22.3827 27.6208 22.5792 27.5352 22.7527 27.413C22.9262 27.2909 23.073 27.1348 23.1844 26.9541C23.2957 26.7735 23.3691 26.5722 23.4003 26.3623C23.4314 26.1524 23.4196 25.9384 23.3655 25.7332C23.3114 25.5281 23.2162 25.336 23.0856 25.1688C21.7428 23.26 19.9131 21.7457 17.7868 20.7835ZM7.18915 14.4015C7.18915 13.3689 7.49533 12.3596 8.06896 11.5011C8.6426 10.6426 9.45794 9.97345 10.4119 9.57832C11.3658 9.18319 12.4155 9.07981 13.4281 9.28124C14.4408 9.48268 15.371 9.97988 16.1011 10.71C16.8312 11.4401 17.3284 12.3703 17.5299 13.383C17.7313 14.3957 17.6279 15.4453 17.2328 16.3993C16.8377 17.3532 16.1685 18.1685 15.31 18.7422C14.4515 19.3158 13.4422 19.622 12.4097 19.622C11.0251 19.622 9.69724 19.072 8.7182 18.0929C7.73917 17.1139 7.18915 15.786 7.18915 14.4015ZM33.344 27.3483C33.0813 27.5361 32.7663 27.6365 32.4434 27.6355C32.1927 27.634 31.9459 27.5729 31.7235 27.4572C31.5011 27.3414 31.3094 27.1744 31.1644 26.9699C30.2474 25.6688 29.0315 24.6069 27.6189 23.8734C26.2063 23.1398 24.6382 22.756 23.0465 22.7543C22.6311 22.7543 22.2328 22.5893 21.939 22.2956C21.6453 22.0019 21.4803 21.6035 21.4803 21.1881C21.4803 20.7728 21.6453 20.3744 21.939 20.0807C22.2328 19.787 22.6311 19.622 23.0465 19.622C24.4311 19.622 25.7589 19.072 26.7379 18.0929C27.717 17.1139 28.267 15.786 28.267 14.4015C28.267 13.0169 27.717 11.689 26.7379 10.71C25.7589 9.73095 24.4311 9.18093 23.0465 9.18093C22.5698 9.18003 22.0953 9.24593 21.6369 9.3767C21.4379 9.43608 21.229 9.45526 21.0225 9.43314C20.8159 9.41101 20.6158 9.34802 20.4339 9.24783C20.2519 9.14764 20.0917 9.01225 19.9625 8.84954C19.8334 8.68684 19.7379 8.50007 19.6817 8.30011C19.6254 8.10015 19.6095 7.89099 19.6348 7.68482C19.6602 7.47865 19.7263 7.27957 19.8293 7.09919C19.9323 6.91881 20.0702 6.76072 20.2349 6.63414C20.3996 6.50755 20.5878 6.41499 20.7886 6.36185C21.523 6.15278 22.2829 6.04735 23.0465 6.04862C24.7609 6.04364 26.4352 6.56715 27.8414 7.54787C29.2476 8.52859 30.3174 9.91886 30.9051 11.5294C31.4929 13.1399 31.5699 14.8925 31.1259 16.5484C30.6819 18.2043 29.7383 19.6831 28.4236 20.7835C30.5499 21.7457 32.3796 23.26 33.7225 25.1688C33.8422 25.3362 33.9274 25.5258 33.9732 25.7265C34.019 25.9272 34.0244 26.1349 33.9892 26.3377C33.954 26.5406 33.8788 26.7343 33.768 26.9078C33.6573 27.0813 33.5131 27.2311 33.344 27.3483Z"/>
</mask>
<path d="M17.7868 20.7835C19.0979 19.6806 20.0381 18.2012 20.4799 16.5459C20.9218 14.8906 20.844 13.1395 20.257 11.5299C19.67 9.9203 18.6022 8.53016 17.1985 7.54791C15.7948 6.56566 14.1229 6.03882 12.4097 6.03882C10.6964 6.03882 9.02457 6.56566 7.62083 7.54791C6.21709 8.53016 5.14935 9.9203 4.56237 11.5299C3.97538 13.1395 3.89755 14.8906 4.33942 16.5459C4.78128 18.2012 5.72148 19.6806 7.03253 20.7835C4.90627 21.7457 3.07658 23.26 1.7337 25.1688C1.49537 25.5082 1.40136 25.9282 1.47232 26.3368C1.54327 26.7454 1.77339 27.1092 2.11219 27.3483C2.37485 27.5361 2.68987 27.6365 3.01273 27.6355C3.26385 27.6362 3.5114 27.576 3.73417 27.4601C3.95693 27.3442 4.14826 27.1759 4.29176 26.9699C5.20681 25.6666 6.4222 24.6027 7.83519 23.8683C9.24818 23.1339 10.8172 22.7505 12.4097 22.7505C14.0021 22.7505 15.5712 23.1339 16.9841 23.8683C18.3971 24.6027 19.6125 25.6666 20.5276 26.9699C20.641 27.1492 20.7897 27.3035 20.9646 27.4236C21.1396 27.5437 21.3371 27.627 21.5451 27.6684C21.7532 27.7099 21.9676 27.7086 22.1751 27.6647C22.3827 27.6208 22.5792 27.5352 22.7527 27.413C22.9262 27.2909 23.073 27.1348 23.1844 26.9541C23.2957 26.7735 23.3691 26.5722 23.4003 26.3623C23.4314 26.1524 23.4196 25.9384 23.3655 25.7332C23.3114 25.5281 23.2162 25.336 23.0856 25.1688C21.7428 23.26 19.9131 21.7457 17.7868 20.7835ZM7.18915 14.4015C7.18915 13.3689 7.49533 12.3596 8.06896 11.5011C8.6426 10.6426 9.45794 9.97345 10.4119 9.57832C11.3658 9.18319 12.4155 9.07981 13.4281 9.28124C14.4408 9.48268 15.371 9.97988 16.1011 10.71C16.8312 11.4401 17.3284 12.3703 17.5299 13.383C17.7313 14.3957 17.6279 15.4453 17.2328 16.3993C16.8377 17.3532 16.1685 18.1685 15.31 18.7422C14.4515 19.3158 13.4422 19.622 12.4097 19.622C11.0251 19.622 9.69724 19.072 8.7182 18.0929C7.73917 17.1139 7.18915 15.786 7.18915 14.4015ZM33.344 27.3483C33.0813 27.5361 32.7663 27.6365 32.4434 27.6355C32.1927 27.634 31.9459 27.5729 31.7235 27.4572C31.5011 27.3414 31.3094 27.1744 31.1644 26.9699C30.2474 25.6688 29.0315 24.6069 27.6189 23.8734C26.2063 23.1398 24.6382 22.756 23.0465 22.7543C22.6311 22.7543 22.2328 22.5893 21.939 22.2956C21.6453 22.0019 21.4803 21.6035 21.4803 21.1881C21.4803 20.7728 21.6453 20.3744 21.939 20.0807C22.2328 19.787 22.6311 19.622 23.0465 19.622C24.4311 19.622 25.7589 19.072 26.7379 18.0929C27.717 17.1139 28.267 15.786 28.267 14.4015C28.267 13.0169 27.717 11.689 26.7379 10.71C25.7589 9.73095 24.4311 9.18093 23.0465 9.18093C22.5698 9.18003 22.0953 9.24593 21.6369 9.3767C21.4379 9.43608 21.229 9.45526 21.0225 9.43314C20.8159 9.41101 20.6158 9.34802 20.4339 9.24783C20.2519 9.14764 20.0917 9.01225 19.9625 8.84954C19.8334 8.68684 19.7379 8.50007 19.6817 8.30011C19.6254 8.10015 19.6095 7.89099 19.6348 7.68482C19.6602 7.47865 19.7263 7.27957 19.8293 7.09919C19.9323 6.91881 20.0702 6.76072 20.2349 6.63414C20.3996 6.50755 20.5878 6.41499 20.7886 6.36185C21.523 6.15278 22.2829 6.04735 23.0465 6.04862C24.7609 6.04364 26.4352 6.56715 27.8414 7.54787C29.2476 8.52859 30.3174 9.91886 30.9051 11.5294C31.4929 13.1399 31.5699 14.8925 31.1259 16.5484C30.6819 18.2043 29.7383 19.6831 28.4236 20.7835C30.5499 21.7457 32.3796 23.26 33.7225 25.1688C33.8422 25.3362 33.9274 25.5258 33.9732 25.7265C34.019 25.9272 34.0244 26.1349 33.9892 26.3377C33.954 26.5406 33.8788 26.7343 33.768 26.9078C33.6573 27.0813 33.5131 27.2311 33.344 27.3483Z" fill="#4CAF4F" stroke="#4CAF4F" stroke-width="1.39214" mask="url(#path-1-inside-1_211_2332)"/>
</g>
<defs>
<clipPath id="clip0_211_2332">
<rect width="33.4113" height="33.4113" fill="white" transform="translate(0.924561 0.306152)"/>
</clipPath>
</defs>
</svg>
