<svg width="34" height="34" viewBox="0 0 34 34" fill="none" xmlns="http://www.w3.org/2000/svg">
<mask id="path-1-inside-1_211_2338" fill="white">
<path d="M20.0111 16.7644C19.8435 16.7644 19.6879 16.7184 19.5496 16.6442V16.6462C19.5496 16.9099 19.4471 17.1575 19.2612 17.343C19.0752 17.529 18.8277 17.6315 18.5643 17.6315C18.3943 17.6315 18.2367 17.5843 18.097 17.5082C18.0828 17.7494 17.9864 17.9749 17.8144 18.1471C17.6284 18.3331 17.381 18.4355 17.1174 18.4355C16.5938 18.4355 16.1685 18.0239 16.1379 17.508C15.9759 17.5956 15.7927 17.6415 15.6037 17.6293C15.0886 17.5956 14.6852 17.1505 14.6852 16.6159V12.1842L14.1806 13.0585C13.9884 13.3928 13.6286 13.6005 13.2412 13.6005C13.0525 13.6005 12.866 13.5509 12.7009 13.4563C12.4952 13.3371 12.3481 13.1457 12.287 12.9168C12.2255 12.6877 12.2573 12.4481 12.3762 12.2427C12.3763 12.2427 14.0273 9.38383 14.128 9.20822C14.1399 9.18182 14.1741 9.10524 14.2031 9.03997C14.2308 8.97765 14.2546 8.91369 14.2774 8.84941C14.7752 7.44385 16.008 6.57074 17.4947 6.57074C19.4254 6.57074 20.9961 8.27396 20.9961 10.3675L20.9963 15.779C20.9963 16.0424 20.894 16.2898 20.7082 16.476C20.5222 16.662 20.2747 16.7645 20.0111 16.7645L20.0111 16.7644ZM17.4948 7.09429C16.2172 7.09429 15.199 7.81588 14.7708 9.0245C14.7435 9.10124 14.7149 9.17799 14.6816 9.25277C14.585 9.46941 14.585 9.46941 14.5578 9.50056L14.5542 9.49745C14.4194 9.7518 14.0189 10.4453 12.8295 12.5048C12.7806 12.5892 12.7677 12.6873 12.7926 12.7811C12.8179 12.8749 12.8784 12.9539 12.9622 13.0023C13.2223 13.1517 13.5785 13.0553 13.7267 12.797L14.7203 11.0767C14.7797 10.9742 14.8997 10.9238 15.0149 10.955C15.1293 10.9857 15.2089 11.0895 15.2089 11.2079V16.616C15.2089 16.8712 15.4014 17.0914 15.6381 17.107C15.7745 17.1142 15.9018 17.0685 15.9974 16.973C16.0843 16.8861 16.1322 16.7703 16.1322 16.6465V13.1095C16.1322 12.9649 16.2494 12.8476 16.3941 12.8476C16.5387 12.8476 16.656 12.9647 16.656 13.1095L16.6558 17.4505C16.6558 17.705 16.8629 17.9121 17.1174 17.9121C17.2411 17.9121 17.3572 17.8642 17.4443 17.7773C17.5312 17.6902 17.5791 17.5741 17.5791 17.4505V13.1095C17.5791 12.9649 17.6962 12.8476 17.841 12.8476C17.9856 12.8476 18.1029 12.9647 18.1029 13.1095L18.1027 16.6058V16.6465C18.1027 16.9008 18.3098 17.108 18.5645 17.108C18.688 17.108 18.8038 17.0599 18.8913 16.9727C18.9783 16.8859 19.0261 16.7701 19.0261 16.6463V13.1093C19.0261 12.9647 19.1432 12.8474 19.288 12.8474C19.4327 12.8474 19.5499 12.9645 19.5499 13.1093L19.5496 15.7791C19.5496 16.0338 19.7567 16.2409 20.0111 16.2409C20.1349 16.2409 20.2507 16.1929 20.3376 16.1061C20.4248 16.0189 20.4725 15.9028 20.4725 15.7791L20.4727 10.3676C20.4727 8.56292 19.1368 7.09434 17.4947 7.09434L17.4948 7.09429Z"/>
</mask>
<path d="M20.0111 16.7644C19.8435 16.7644 19.6879 16.7184 19.5496 16.6442V16.6462C19.5496 16.9099 19.4471 17.1575 19.2612 17.343C19.0752 17.529 18.8277 17.6315 18.5643 17.6315C18.3943 17.6315 18.2367 17.5843 18.097 17.5082C18.0828 17.7494 17.9864 17.9749 17.8144 18.1471C17.6284 18.3331 17.381 18.4355 17.1174 18.4355C16.5938 18.4355 16.1685 18.0239 16.1379 17.508C15.9759 17.5956 15.7927 17.6415 15.6037 17.6293C15.0886 17.5956 14.6852 17.1505 14.6852 16.6159V12.1842L14.1806 13.0585C13.9884 13.3928 13.6286 13.6005 13.2412 13.6005C13.0525 13.6005 12.866 13.5509 12.7009 13.4563C12.4952 13.3371 12.3481 13.1457 12.287 12.9168C12.2255 12.6877 12.2573 12.4481 12.3762 12.2427C12.3763 12.2427 14.0273 9.38383 14.128 9.20822C14.1399 9.18182 14.1741 9.10524 14.2031 9.03997C14.2308 8.97765 14.2546 8.91369 14.2774 8.84941C14.7752 7.44385 16.008 6.57074 17.4947 6.57074C19.4254 6.57074 20.9961 8.27396 20.9961 10.3675L20.9963 15.779C20.9963 16.0424 20.894 16.2898 20.7082 16.476C20.5222 16.662 20.2747 16.7645 20.0111 16.7645L20.0111 16.7644ZM17.4948 7.09429C16.2172 7.09429 15.199 7.81588 14.7708 9.0245C14.7435 9.10124 14.7149 9.17799 14.6816 9.25277C14.585 9.46941 14.585 9.46941 14.5578 9.50056L14.5542 9.49745C14.4194 9.7518 14.0189 10.4453 12.8295 12.5048C12.7806 12.5892 12.7677 12.6873 12.7926 12.7811C12.8179 12.8749 12.8784 12.9539 12.9622 13.0023C13.2223 13.1517 13.5785 13.0553 13.7267 12.797L14.7203 11.0767C14.7797 10.9742 14.8997 10.9238 15.0149 10.955C15.1293 10.9857 15.2089 11.0895 15.2089 11.2079V16.616C15.2089 16.8712 15.4014 17.0914 15.6381 17.107C15.7745 17.1142 15.9018 17.0685 15.9974 16.973C16.0843 16.8861 16.1322 16.7703 16.1322 16.6465V13.1095C16.1322 12.9649 16.2494 12.8476 16.3941 12.8476C16.5387 12.8476 16.656 12.9647 16.656 13.1095L16.6558 17.4505C16.6558 17.705 16.8629 17.9121 17.1174 17.9121C17.2411 17.9121 17.3572 17.8642 17.4443 17.7773C17.5312 17.6902 17.5791 17.5741 17.5791 17.4505V13.1095C17.5791 12.9649 17.6962 12.8476 17.841 12.8476C17.9856 12.8476 18.1029 12.9647 18.1029 13.1095L18.1027 16.6058V16.6465C18.1027 16.9008 18.3098 17.108 18.5645 17.108C18.688 17.108 18.8038 17.0599 18.8913 16.9727C18.9783 16.8859 19.0261 16.7701 19.0261 16.6463V13.1093C19.0261 12.9647 19.1432 12.8474 19.288 12.8474C19.4327 12.8474 19.5499 12.9645 19.5499 13.1093L19.5496 15.7791C19.5496 16.0338 19.7567 16.2409 20.0111 16.2409C20.1349 16.2409 20.2507 16.1929 20.3376 16.1061C20.4248 16.0189 20.4725 15.9028 20.4725 15.7791L20.4727 10.3676C20.4727 8.56292 19.1368 7.09434 17.4947 7.09434L17.4948 7.09429Z" fill="#4CAF4F" stroke="#4CAF4F" stroke-width="1.85619" mask="url(#path-1-inside-1_211_2338)"/>
<mask id="path-2-inside-2_211_2338" fill="white">
<path d="M9.7214 20.5256L13.5217 18.2458C13.9799 17.9706 14.5695 18.0875 14.8634 18.5121C14.9706 18.6667 15.0254 18.847 15.0339 19.0305C15.1756 18.9565 15.3298 18.9163 15.4867 18.9163C15.5671 18.9163 15.6477 18.9264 15.7274 18.9462C15.9828 19.01 16.1979 19.1696 16.3332 19.3952C16.4687 19.6212 16.5082 19.886 16.4444 20.141C16.3856 20.377 16.2421 20.5756 16.0425 20.7119C16.182 20.7942 16.3024 20.9066 16.388 21.0496C16.5235 21.2756 16.563 21.5403 16.4994 21.7956C16.4356 22.0506 16.276 22.2658 16.05 22.4014L16.0487 22.4022C16.1858 22.4844 16.304 22.5956 16.3887 22.7364C16.5243 22.9624 16.5638 23.2273 16.5 23.4826C16.4361 23.7378 16.2765 23.9529 16.0509 24.0884L11.4106 26.8722C10.5445 27.3915 9.54334 27.5708 8.59186 27.3765C7.63185 27.1803 6.8368 26.6285 6.35337 25.8226C5.58833 24.5476 5.70299 23.0411 6.652 21.8914C6.69546 21.8389 6.73827 21.7854 6.77713 21.73C6.81829 21.6715 6.86634 21.6026 6.88274 21.579C6.98097 21.4035 8.58386 18.5156 8.58369 18.5159C8.74555 18.2238 9.04893 18.0585 9.36183 18.0587C9.50778 18.0587 9.65586 18.0946 9.79248 18.1704C9.95746 18.2625 10.096 18.3968 10.1929 18.5587C10.3922 18.8908 10.3993 19.3064 10.2116 19.6427L9.7214 20.5256ZM9.7442 18.8279C9.69336 18.7432 9.6235 18.6756 9.53805 18.6277C9.36144 18.53 9.13906 18.5936 9.04183 18.7696C7.89488 20.8359 7.5039 21.54 7.35301 21.7906L7.35646 21.7914C7.34383 21.8334 7.34383 21.8334 7.20575 22.0307C7.15885 22.0975 7.10785 22.1616 7.05586 22.2247C6.23981 23.2134 6.14506 24.4577 6.80216 25.5533C7.20919 26.2319 7.8819 26.6971 8.69644 26.8634C9.51983 27.0308 10.3877 26.875 11.1409 26.4231L15.7816 23.6392C15.8876 23.5757 15.9623 23.4749 15.9922 23.3553C16.022 23.2359 16.0035 23.1118 15.9399 23.0058C15.809 22.7877 15.5248 22.7161 15.3067 22.8474L13.0174 24.2209C12.8934 24.2953 12.7324 24.2553 12.6581 24.1312C12.5836 24.0072 12.6238 23.8463 12.7478 23.7719L15.0373 22.3984L15.7808 21.9524C15.8867 21.8887 15.9617 21.7879 15.9915 21.6686C16.0214 21.5491 16.0029 21.4248 15.9392 21.319C15.8082 21.1007 15.524 21.0297 15.3061 21.1606L12.273 22.9801C12.1487 23.0547 11.9882 23.0144 11.9137 22.8904C11.8393 22.7664 11.8796 22.6055 12.0034 22.5311L15.7259 20.298C15.8318 20.2344 15.9066 20.1337 15.9364 20.0142C15.9663 19.8948 15.9478 19.7706 15.8843 19.6647C15.8208 19.5589 15.72 19.4841 15.6004 19.4543C15.4802 19.4244 15.3566 19.443 15.251 19.5063L14.5619 19.9197C14.5617 19.9197 14.5617 19.9199 14.5615 19.9199H14.5614L11.5285 21.7394C11.4042 21.8141 11.2435 21.7738 11.1692 21.6497C11.0947 21.5257 11.1351 21.3648 11.2589 21.2904L14.2919 19.4708C14.3979 19.4072 14.4728 19.3064 14.5027 19.1871C14.5355 19.0563 14.5105 18.9225 14.4328 18.8103C14.298 18.6153 14.0097 18.5635 13.7911 18.6948L9.15376 21.4768C9.05225 21.5375 8.92221 21.5227 8.83709 21.4406C8.75182 21.3583 8.73263 21.2289 8.79003 21.1254L9.75431 19.388C9.85107 19.2144 9.8473 18.9999 9.74415 18.828L9.7442 18.8279Z"/>
</mask>
<path d="M9.7214 20.5256L13.5217 18.2458C13.9799 17.9706 14.5695 18.0875 14.8634 18.5121C14.9706 18.6667 15.0254 18.847 15.0339 19.0305C15.1756 18.9565 15.3298 18.9163 15.4867 18.9163C15.5671 18.9163 15.6477 18.9264 15.7274 18.9462C15.9828 19.01 16.1979 19.1696 16.3332 19.3952C16.4687 19.6212 16.5082 19.886 16.4444 20.141C16.3856 20.377 16.2421 20.5756 16.0425 20.7119C16.182 20.7942 16.3024 20.9066 16.388 21.0496C16.5235 21.2756 16.563 21.5403 16.4994 21.7956C16.4356 22.0506 16.276 22.2658 16.05 22.4014L16.0487 22.4022C16.1858 22.4844 16.304 22.5956 16.3887 22.7364C16.5243 22.9624 16.5638 23.2273 16.5 23.4826C16.4361 23.7378 16.2765 23.9529 16.0509 24.0884L11.4106 26.8722C10.5445 27.3915 9.54334 27.5708 8.59186 27.3765C7.63185 27.1803 6.8368 26.6285 6.35337 25.8226C5.58833 24.5476 5.70299 23.0411 6.652 21.8914C6.69546 21.8389 6.73827 21.7854 6.77713 21.73C6.81829 21.6715 6.86634 21.6026 6.88274 21.579C6.98097 21.4035 8.58386 18.5156 8.58369 18.5159C8.74555 18.2238 9.04893 18.0585 9.36183 18.0587C9.50778 18.0587 9.65586 18.0946 9.79248 18.1704C9.95746 18.2625 10.096 18.3968 10.1929 18.5587C10.3922 18.8908 10.3993 19.3064 10.2116 19.6427L9.7214 20.5256ZM9.7442 18.8279C9.69336 18.7432 9.6235 18.6756 9.53805 18.6277C9.36144 18.53 9.13906 18.5936 9.04183 18.7696C7.89488 20.8359 7.5039 21.54 7.35301 21.7906L7.35646 21.7914C7.34383 21.8334 7.34383 21.8334 7.20575 22.0307C7.15885 22.0975 7.10785 22.1616 7.05586 22.2247C6.23981 23.2134 6.14506 24.4577 6.80216 25.5533C7.20919 26.2319 7.8819 26.6971 8.69644 26.8634C9.51983 27.0308 10.3877 26.875 11.1409 26.4231L15.7816 23.6392C15.8876 23.5757 15.9623 23.4749 15.9922 23.3553C16.022 23.2359 16.0035 23.1118 15.9399 23.0058C15.809 22.7877 15.5248 22.7161 15.3067 22.8474L13.0174 24.2209C12.8934 24.2953 12.7324 24.2553 12.6581 24.1312C12.5836 24.0072 12.6238 23.8463 12.7478 23.7719L15.0373 22.3984L15.7808 21.9524C15.8867 21.8887 15.9617 21.7879 15.9915 21.6686C16.0214 21.5491 16.0029 21.4248 15.9392 21.319C15.8082 21.1007 15.524 21.0297 15.3061 21.1606L12.273 22.9801C12.1487 23.0547 11.9882 23.0144 11.9137 22.8904C11.8393 22.7664 11.8796 22.6055 12.0034 22.5311L15.7259 20.298C15.8318 20.2344 15.9066 20.1337 15.9364 20.0142C15.9663 19.8948 15.9478 19.7706 15.8843 19.6647C15.8208 19.5589 15.72 19.4841 15.6004 19.4543C15.4802 19.4244 15.3566 19.443 15.251 19.5063L14.5619 19.9197C14.5617 19.9197 14.5617 19.9199 14.5615 19.9199H14.5614L11.5285 21.7394C11.4042 21.8141 11.2435 21.7738 11.1692 21.6497C11.0947 21.5257 11.1351 21.3648 11.2589 21.2904L14.2919 19.4708C14.3979 19.4072 14.4728 19.3064 14.5027 19.1871C14.5355 19.0563 14.5105 18.9225 14.4328 18.8103C14.298 18.6153 14.0097 18.5635 13.7911 18.6948L9.15376 21.4768C9.05225 21.5375 8.92221 21.5227 8.83709 21.4406C8.75182 21.3583 8.73263 21.2289 8.79003 21.1254L9.75431 19.388C9.85107 19.2144 9.8473 18.9999 9.74415 18.828L9.7442 18.8279Z" fill="#4CAF4F" stroke="#4CAF4F" stroke-width="1.85619" mask="url(#path-2-inside-2_211_2338)"/>
<mask id="path-3-inside-3_211_2338" fill="white">
<path d="M27.8812 25.8225C27.3979 26.6285 26.6031 27.1802 25.6429 27.3764C24.6912 27.5704 23.6904 27.3914 22.8242 26.8721L18.1835 24.0882C17.9577 23.9527 17.7979 23.7375 17.734 23.482C17.6705 23.227 17.7102 22.9622 17.8455 22.7365C17.9299 22.5955 18.0483 22.4843 18.1856 22.4021L18.1843 22.4013C17.9585 22.2658 17.7988 22.0507 17.7351 21.7955C17.6712 21.5403 17.7109 21.2753 17.8463 21.0494C17.9336 20.9042 18.0531 20.7907 18.1896 20.7102C17.9915 20.5739 17.8488 20.376 17.7901 20.1412C17.7261 19.8858 17.7658 19.621 17.9013 19.3953C18.0366 19.1695 18.2519 19.0099 18.5071 18.9461C18.5868 18.9261 18.6676 18.9163 18.7476 18.9163C18.9047 18.9164 19.0589 18.9563 19.2006 19.0304C19.2093 18.8469 19.2639 18.6667 19.3711 18.512C19.6652 18.0878 20.2542 17.9704 20.7131 18.2457L24.5133 20.5252L24.0235 19.6429C23.8355 19.3061 23.8424 18.8905 24.0417 18.5583C24.1387 18.3966 24.2775 18.2623 24.4433 18.1693C24.5796 18.0938 24.7272 18.0581 24.8728 18.0581C25.1855 18.0583 25.4892 18.2232 25.6509 18.5153C26.2144 19.5306 27.2777 21.4454 27.3525 21.579C27.3684 21.6022 27.4164 21.671 27.4576 21.7296C27.4968 21.7852 27.5391 21.8383 27.5829 21.8911C28.5318 23.0413 28.6462 24.5476 27.8812 25.8225L27.8812 25.8225ZM27.1789 22.2249C27.1267 22.1617 27.0755 22.0973 27.029 22.0309C26.8873 21.8298 26.8837 21.8246 26.873 21.7719C26.7074 21.4979 26.3033 20.7704 25.1926 18.7694C25.0952 18.5937 24.8738 18.5296 24.6975 18.627C24.6107 18.6756 24.541 18.7433 24.4902 18.8281C24.3872 18.9998 24.3833 19.2143 24.4805 19.3884L25.4445 21.1253C25.502 21.2289 25.4829 21.3582 25.3977 21.4405C25.3128 21.523 25.1829 21.5374 25.0809 21.4767L20.4436 18.6947C20.225 18.5637 19.9368 18.615 19.8017 18.8102C19.724 18.9224 19.6992 19.0562 19.7317 19.1869C19.7615 19.3063 19.8365 19.407 19.9426 19.4706C19.9429 19.4708 19.9431 19.4711 19.9434 19.4712L22.9755 21.2902C23.0994 21.3647 23.1396 21.5254 23.0652 21.6496C22.9907 21.7734 22.8302 21.8139 22.7059 21.7393L18.9834 19.5062C18.8778 19.4429 18.7535 19.4242 18.6341 19.4542C18.5144 19.484 18.4137 19.5588 18.3502 19.6649C18.2866 19.7707 18.2682 19.8948 18.2977 20.0142C18.3276 20.1336 18.4025 20.2345 18.5085 20.2981L19.2328 20.7325L22.2308 22.5312C22.3547 22.6057 22.3949 22.7664 22.3205 22.8905C22.246 23.0143 22.0855 23.0547 21.9612 22.9802L18.9285 21.1607C18.7104 21.0295 18.4263 21.1007 18.2951 21.3191C18.2315 21.4251 18.2131 21.5492 18.2426 21.6686C18.2725 21.788 18.3474 21.8887 18.4535 21.9525L19.1971 22.3985L21.4862 23.772C21.6102 23.8464 21.6504 24.0071 21.5759 24.1313C21.5015 24.2551 21.3409 24.2958 21.2166 24.221L18.9275 22.8475C18.8219 22.7842 18.6981 22.7655 18.578 22.7956C18.4586 22.8254 18.3576 22.9002 18.2941 23.006C18.2307 23.1119 18.2121 23.2362 18.2417 23.3554C18.2715 23.4748 18.3465 23.5755 18.4526 23.6393L23.0933 26.4232C23.8463 26.875 24.7148 27.0314 25.5377 26.8635C26.3521 26.6972 27.0248 26.232 27.4319 25.5534C28.0896 24.4576 27.995 23.2132 27.1791 22.2248L27.1789 22.2249Z"/>
</mask>
<path d="M27.8812 25.8225C27.3979 26.6285 26.6031 27.1802 25.6429 27.3764C24.6912 27.5704 23.6904 27.3914 22.8242 26.8721L18.1835 24.0882C17.9577 23.9527 17.7979 23.7375 17.734 23.482C17.6705 23.227 17.7102 22.9622 17.8455 22.7365C17.9299 22.5955 18.0483 22.4843 18.1856 22.4021L18.1843 22.4013C17.9585 22.2658 17.7988 22.0507 17.7351 21.7955C17.6712 21.5403 17.7109 21.2753 17.8463 21.0494C17.9336 20.9042 18.0531 20.7907 18.1896 20.7102C17.9915 20.5739 17.8488 20.376 17.7901 20.1412C17.7261 19.8858 17.7658 19.621 17.9013 19.3953C18.0366 19.1695 18.2519 19.0099 18.5071 18.9461C18.5868 18.9261 18.6676 18.9163 18.7476 18.9163C18.9047 18.9164 19.0589 18.9563 19.2006 19.0304C19.2093 18.8469 19.2639 18.6667 19.3711 18.512C19.6652 18.0878 20.2542 17.9704 20.7131 18.2457L24.5133 20.5252L24.0235 19.6429C23.8355 19.3061 23.8424 18.8905 24.0417 18.5583C24.1387 18.3966 24.2775 18.2623 24.4433 18.1693C24.5796 18.0938 24.7272 18.0581 24.8728 18.0581C25.1855 18.0583 25.4892 18.2232 25.6509 18.5153C26.2144 19.5306 27.2777 21.4454 27.3525 21.579C27.3684 21.6022 27.4164 21.671 27.4576 21.7296C27.4968 21.7852 27.5391 21.8383 27.5829 21.8911C28.5318 23.0413 28.6462 24.5476 27.8812 25.8225L27.8812 25.8225ZM27.1789 22.2249C27.1267 22.1617 27.0755 22.0973 27.029 22.0309C26.8873 21.8298 26.8837 21.8246 26.873 21.7719C26.7074 21.4979 26.3033 20.7704 25.1926 18.7694C25.0952 18.5937 24.8738 18.5296 24.6975 18.627C24.6107 18.6756 24.541 18.7433 24.4902 18.8281C24.3872 18.9998 24.3833 19.2143 24.4805 19.3884L25.4445 21.1253C25.502 21.2289 25.4829 21.3582 25.3977 21.4405C25.3128 21.523 25.1829 21.5374 25.0809 21.4767L20.4436 18.6947C20.225 18.5637 19.9368 18.615 19.8017 18.8102C19.724 18.9224 19.6992 19.0562 19.7317 19.1869C19.7615 19.3063 19.8365 19.407 19.9426 19.4706C19.9429 19.4708 19.9431 19.4711 19.9434 19.4712L22.9755 21.2902C23.0994 21.3647 23.1396 21.5254 23.0652 21.6496C22.9907 21.7734 22.8302 21.8139 22.7059 21.7393L18.9834 19.5062C18.8778 19.4429 18.7535 19.4242 18.6341 19.4542C18.5144 19.484 18.4137 19.5588 18.3502 19.6649C18.2866 19.7707 18.2682 19.8948 18.2977 20.0142C18.3276 20.1336 18.4025 20.2345 18.5085 20.2981L19.2328 20.7325L22.2308 22.5312C22.3547 22.6057 22.3949 22.7664 22.3205 22.8905C22.246 23.0143 22.0855 23.0547 21.9612 22.9802L18.9285 21.1607C18.7104 21.0295 18.4263 21.1007 18.2951 21.3191C18.2315 21.4251 18.2131 21.5492 18.2426 21.6686C18.2725 21.788 18.3474 21.8887 18.4535 21.9525L19.1971 22.3985L21.4862 23.772C21.6102 23.8464 21.6504 24.0071 21.5759 24.1313C21.5015 24.2551 21.3409 24.2958 21.2166 24.221L18.9275 22.8475C18.8219 22.7842 18.6981 22.7655 18.578 22.7956C18.4586 22.8254 18.3576 22.9002 18.2941 23.006C18.2307 23.1119 18.2121 23.2362 18.2417 23.3554C18.2715 23.4748 18.3465 23.5755 18.4526 23.6393L23.0933 26.4232C23.8463 26.875 24.7148 27.0314 25.5377 26.8635C26.3521 26.6972 27.0248 26.232 27.4319 25.5534C28.0896 24.4576 27.995 23.2132 27.1791 22.2248L27.1789 22.2249Z" fill="#4CAF4F" stroke="#4CAF4F" stroke-width="1.85619" mask="url(#path-3-inside-3_211_2338)"/>
</svg>
