<svg width="135" height="37" viewBox="0 0 135 37" fill="none" xmlns="http://www.w3.org/2000/svg">
<rect x="0.851929" y="0.137207" width="133.254" height="36.4899" rx="2.78428" fill="#4CAF4F"/>
<path d="M24.4512 21.8821V13.7824H27.3383C27.9658 13.7824 28.4866 13.8905 28.9005 14.1067C29.3171 14.3229 29.6282 14.6221 29.8339 15.0044C30.0396 15.3841 30.1424 15.8231 30.1424 16.3214C30.1424 16.8171 30.0382 17.2535 29.8299 17.6305C29.6243 18.0049 29.3132 18.2963 28.8966 18.5046C28.4826 18.7129 27.9619 18.817 27.3344 18.817H25.1473V17.765H27.2236C27.6191 17.765 27.9408 17.7083 28.1886 17.5949C28.4391 17.4815 28.6224 17.3168 28.7384 17.1006C28.8544 16.8844 28.9124 16.6246 28.9124 16.3214C28.9124 16.0156 28.8531 15.7506 28.7344 15.5265C28.6184 15.3024 28.4352 15.131 28.1847 15.0123C27.9368 14.8911 27.6112 14.8304 27.2078 14.8304H25.6733V21.8821H24.4512ZM28.4497 18.2277L30.4509 21.8821H29.0587L27.0971 18.2277H28.4497ZM34.0766 22.0047C33.478 22.0047 32.9626 21.8768 32.5302 21.6211C32.1004 21.3627 31.7682 21.0001 31.5335 20.5334C31.3015 20.0641 31.1855 19.5144 31.1855 18.8842C31.1855 18.262 31.3015 17.7136 31.5335 17.239C31.7682 16.7644 32.0951 16.3939 32.5144 16.1276C32.9362 15.8613 33.4293 15.7282 33.9935 15.7282C34.3363 15.7282 34.6685 15.7849 34.9901 15.8983C35.3118 16.0116 35.6005 16.1896 35.8563 16.4322C36.112 16.6747 36.3137 16.9898 36.4614 17.3774C36.609 17.7624 36.6829 18.2304 36.6829 18.7814V19.2006H31.8539V18.3147H35.5241C35.5241 18.0036 35.4608 17.7281 35.3342 17.4881C35.2077 17.2456 35.0297 17.0544 34.8003 16.9147C34.5736 16.7749 34.3073 16.7051 34.0014 16.7051C33.6692 16.7051 33.3792 16.7868 33.1313 16.9503C32.8861 17.1111 32.6963 17.322 32.5618 17.5831C32.43 17.8414 32.3641 18.1223 32.3641 18.4255V19.1176C32.3641 19.5236 32.4353 19.869 32.5776 20.1538C32.7226 20.4385 32.9244 20.656 33.1827 20.8063C33.4411 20.954 33.743 21.0278 34.0884 21.0278C34.3125 21.0278 34.5169 20.9962 34.7014 20.9329C34.886 20.867 35.0455 20.7694 35.18 20.6402C35.3145 20.511 35.4173 20.3515 35.4885 20.1617L36.6077 20.3634C36.5181 20.693 36.3572 20.9817 36.1252 21.2295C35.8958 21.4747 35.6071 21.6659 35.2591 21.803C34.9137 21.9374 34.5195 22.0047 34.0766 22.0047ZM40.5419 24.2867C40.0594 24.2867 39.6441 24.2234 39.2961 24.0968C38.9507 23.9703 38.6686 23.8029 38.4497 23.5946C38.2309 23.3863 38.0674 23.1582 37.9593 22.9104L38.9757 22.4911C39.0469 22.6072 39.1418 22.7298 39.2605 22.859C39.3818 22.9908 39.5452 23.1028 39.7509 23.1951C39.9592 23.2874 40.2268 23.3335 40.5538 23.3335C41.002 23.3335 41.3724 23.2241 41.6651 23.0053C41.9578 22.7891 42.1041 22.4437 42.1041 21.9691V20.7747H42.029C41.9578 20.9039 41.8549 21.0476 41.7205 21.2058C41.5886 21.364 41.4067 21.5011 41.1747 21.6171C40.9427 21.7331 40.6408 21.7911 40.269 21.7911C39.7891 21.7911 39.3567 21.6791 38.9718 21.4549C38.5895 21.2282 38.2863 20.8947 38.0621 20.4543C37.8407 20.0114 37.7299 19.4669 37.7299 18.821C37.7299 18.175 37.8394 17.6213 38.0582 17.1599C38.2797 16.6985 38.5829 16.3452 38.9678 16.1C39.3528 15.8521 39.7891 15.7282 40.2769 15.7282C40.654 15.7282 40.9585 15.7915 41.1905 15.918C41.4225 16.042 41.6031 16.187 41.7323 16.3531C41.8642 16.5192 41.9657 16.6655 42.0369 16.7921H42.1239V15.8073H43.2827V22.0165C43.2827 22.5386 43.1614 22.9671 42.9188 23.3019C42.6762 23.6368 42.348 23.8846 41.934 24.0454C41.5227 24.2063 41.0587 24.2867 40.5419 24.2867ZM40.53 20.8103C40.8702 20.8103 41.1575 20.7312 41.3922 20.573C41.6295 20.4122 41.8088 20.1828 41.9301 19.8848C42.054 19.5843 42.116 19.2244 42.116 18.8051C42.116 18.3965 42.0553 18.0366 41.934 17.7254C41.8127 17.4143 41.6348 17.1717 41.4001 16.9977C41.1655 16.8211 40.8754 16.7327 40.53 16.7327C40.1741 16.7327 39.8775 16.825 39.6402 17.0096C39.4029 17.1915 39.2236 17.4394 39.1023 17.7531C38.9836 18.0669 38.9243 18.4176 38.9243 18.8051C38.9243 19.2033 38.985 19.5526 39.1063 19.8532C39.2275 20.1538 39.4068 20.3884 39.6441 20.5572C39.8841 20.7259 40.1794 20.8103 40.53 20.8103ZM44.8686 21.8821V15.8073H46.0511V21.8821H44.8686ZM45.4658 14.87C45.2601 14.87 45.0835 14.8014 44.9358 14.6643C44.7908 14.5246 44.7183 14.3585 44.7183 14.166C44.7183 13.9709 44.7908 13.8048 44.9358 13.6677C45.0835 13.5279 45.2601 13.4581 45.4658 13.4581C45.6715 13.4581 45.8468 13.5279 45.9918 13.6677C46.1395 13.8048 46.2133 13.9709 46.2133 14.166C46.2133 14.3585 46.1395 14.5246 45.9918 14.6643C45.8468 14.8014 45.6715 14.87 45.4658 14.87ZM52.1941 17.2904L51.1223 17.4802C51.0775 17.3431 51.0063 17.2126 50.9088 17.0887C50.8139 16.9648 50.6847 16.8633 50.5212 16.7842C50.3577 16.7051 50.1534 16.6655 49.9082 16.6655C49.5733 16.6655 49.2938 16.7407 49.0697 16.8909C48.8456 17.0386 48.7336 17.2298 48.7336 17.4644C48.7336 17.6674 48.8087 17.8309 48.959 17.9548C49.1093 18.0787 49.3519 18.1803 49.6867 18.2594L50.6517 18.4808C51.2107 18.61 51.6273 18.8091 51.9015 19.078C52.1757 19.347 52.3128 19.6963 52.3128 20.1261C52.3128 20.4899 52.2073 20.8142 51.9964 21.099C51.7881 21.3811 51.4968 21.6026 51.1223 21.7634C50.7506 21.9243 50.3195 22.0047 49.8291 22.0047C49.1488 22.0047 48.5938 21.8597 48.1641 21.5696C47.7343 21.277 47.4706 20.8617 47.3731 20.3238L48.516 20.1498C48.5872 20.4478 48.7336 20.6732 48.955 20.8261C49.1765 20.9764 49.4652 21.0515 49.8212 21.0515C50.2088 21.0515 50.5186 20.9711 50.7506 20.8103C50.9826 20.6468 51.0986 20.4478 51.0986 20.2131C51.0986 20.0233 51.0274 19.8637 50.8851 19.7345C50.7453 19.6054 50.5304 19.5078 50.2404 19.4419L49.2121 19.2165C48.6452 19.0873 48.226 18.8816 47.9544 18.5995C47.6855 18.3174 47.551 17.9601 47.551 17.5277C47.551 17.1691 47.6512 16.8554 47.8516 16.5864C48.052 16.3175 48.3288 16.1079 48.6822 15.9576C49.0355 15.8047 49.4402 15.7282 49.8963 15.7282C50.5528 15.7282 51.0696 15.8706 51.4467 16.1553C51.8237 16.4374 52.0729 16.8158 52.1941 17.2904ZM56.4487 15.8073V16.7565H53.1305V15.8073H56.4487ZM54.0203 14.3519H55.2029V20.0984C55.2029 20.3278 55.2371 20.5005 55.3057 20.6165C55.3742 20.7299 55.4626 20.8077 55.5707 20.8498C55.6814 20.8894 55.8014 20.9092 55.9306 20.9092C56.0255 20.9092 56.1085 20.9026 56.1797 20.8894C56.2509 20.8762 56.3063 20.8657 56.3458 20.8578L56.5594 21.8346C56.4909 21.861 56.3933 21.8874 56.2667 21.9137C56.1402 21.9427 55.982 21.9585 55.7921 21.9612C55.481 21.9665 55.191 21.9111 54.9221 21.7951C54.6531 21.6791 54.4356 21.4998 54.2695 21.2572C54.1034 21.0146 54.0203 20.7101 54.0203 20.3436V14.3519ZM60.3097 22.0047C59.7112 22.0047 59.1957 21.8768 58.7633 21.6211C58.3335 21.3627 58.0013 21.0001 57.7666 20.5334C57.5346 20.0641 57.4186 19.5144 57.4186 18.8842C57.4186 18.262 57.5346 17.7136 57.7666 17.239C58.0013 16.7644 58.3282 16.3939 58.7475 16.1276C59.1693 15.8613 59.6624 15.7282 60.2266 15.7282C60.5694 15.7282 60.9016 15.7849 61.2233 15.8983C61.5449 16.0116 61.8336 16.1896 62.0894 16.4322C62.3452 16.6747 62.5469 16.9898 62.6945 17.3774C62.8422 17.7624 62.916 18.2304 62.916 18.7814V19.2006H58.087V18.3147H61.7572C61.7572 18.0036 61.6939 17.7281 61.5673 17.4881C61.4408 17.2456 61.2628 17.0544 61.0334 16.9147C60.8067 16.7749 60.5404 16.7051 60.2345 16.7051C59.9023 16.7051 59.6123 16.7868 59.3644 16.9503C59.1192 17.1111 58.9294 17.322 58.7949 17.5831C58.6631 17.8414 58.5972 18.1223 58.5972 18.4255V19.1176C58.5972 19.5236 58.6684 19.869 58.8108 20.1538C58.9558 20.4385 59.1575 20.656 59.4159 20.8063C59.6742 20.954 59.9761 21.0278 60.3215 21.0278C60.5457 21.0278 60.75 20.9962 60.9346 20.9329C61.1191 20.867 61.2786 20.7694 61.4131 20.6402C61.5476 20.511 61.6504 20.3515 61.7216 20.1617L62.8408 20.3634C62.7512 20.693 62.5904 20.9817 62.3583 21.2295C62.1289 21.4747 61.8402 21.6659 61.4922 21.803C61.1468 21.9374 60.7526 22.0047 60.3097 22.0047ZM64.228 21.8821V15.8073H65.371V16.7723H65.4343C65.545 16.4454 65.7401 16.1883 66.0196 16.0011C66.3017 15.8112 66.6208 15.7163 66.9767 15.7163C67.0505 15.7163 67.1376 15.719 67.2377 15.7242C67.3406 15.7295 67.421 15.7361 67.479 15.744V16.8751C67.4315 16.8619 67.3472 16.8474 67.2259 16.8316C67.1046 16.8132 66.9833 16.8039 66.862 16.8039C66.5825 16.8039 66.3334 16.8633 66.1145 16.9819C65.8983 17.0979 65.727 17.2601 65.6004 17.4684C65.4738 17.674 65.4106 17.9087 65.4106 18.1723V21.8821H64.228ZM78.0822 13.7824V21.8821H76.959L72.8419 15.9418H72.7667V21.8821H71.5447V13.7824H72.6758L76.7968 19.7306H76.872V13.7824H78.0822ZM82.3288 22.0047C81.7593 22.0047 81.2623 21.8742 80.8378 21.6131C80.4133 21.3521 80.0837 20.9869 79.8491 20.5176C79.6144 20.0483 79.4971 19.4999 79.4971 18.8724C79.4971 18.2422 79.6144 17.6912 79.8491 17.2192C80.0837 16.7472 80.4133 16.3808 80.8378 16.1197C81.2623 15.8587 81.7593 15.7282 82.3288 15.7282C82.8983 15.7282 83.3953 15.8587 83.8198 16.1197C84.2443 16.3808 84.5739 16.7472 84.8086 17.2192C85.0432 17.6912 85.1605 18.2422 85.1605 18.8724C85.1605 19.4999 85.0432 20.0483 84.8086 20.5176C84.5739 20.9869 84.2443 21.3521 83.8198 21.6131C83.3953 21.8742 82.8983 22.0047 82.3288 22.0047ZM82.3328 21.012C82.7019 21.012 83.0077 20.9144 83.2503 20.7193C83.4929 20.5242 83.6722 20.2645 83.7882 19.9402C83.9068 19.6159 83.9662 19.2586 83.9662 18.8684C83.9662 18.4808 83.9068 18.1249 83.7882 17.8006C83.6722 17.4736 83.4929 17.2113 83.2503 17.0135C83.0077 16.8158 82.7019 16.7169 82.3328 16.7169C81.961 16.7169 81.6525 16.8158 81.4073 17.0135C81.1647 17.2113 80.9841 17.4736 80.8655 17.8006C80.7495 18.1249 80.6915 18.4808 80.6915 18.8684C80.6915 19.2586 80.7495 19.6159 80.8655 19.9402C80.9841 20.2645 81.1647 20.5242 81.4073 20.7193C81.6525 20.9144 81.961 21.012 82.3328 21.012ZM87.6126 21.8821L85.825 15.8073H87.047L88.2375 20.2685H88.2968L89.4912 15.8073H90.7133L91.8998 20.2487H91.9591L93.1416 15.8073H94.3637L92.58 21.8821H91.3738L90.1398 17.4961H90.0488L88.8149 21.8821H87.6126Z" fill="white"/>
<path d="M108.526 20.4707L110.245 18.7516C110.449 18.5477 110.449 18.2172 110.245 18.0133L108.526 16.2942M110.092 18.3824L102.435 18.3824" stroke="white" stroke-width="0.765676" stroke-linecap="round"/>
</svg>
